<svg width="32" height="32" viewBox="0 0 32 32" fill="none" xmlns="http://www.w3.org/2000/svg">
<path d="M26.96 22.1602C26.96 23.2935 26.04 24.2135 24.9067 24.2135H7.09338C5.96005 24.2135 5.04004 23.2935 5.04004 22.1602C5.04004 21.0268 5.96005 20.1069 7.09338 20.1069H7.77336V13.2535C7.77336 8.72019 11.4534 5.02686 16 5.02686C18.2667 5.02686 20.32 5.94685 21.8134 7.44019C23.3067 8.92019 24.2267 10.9735 24.2267 13.2535V20.1069H24.9067C26.04 20.1069 26.96 21.0268 26.96 22.1602Z" stroke="#9B0F5E" stroke-width="1.5" stroke-linecap="round" stroke-linejoin="round"/>
<path d="M16 5.04008V3.66675" stroke="#9B0F5E" stroke-width="1.5" stroke-linecap="round" stroke-linejoin="round"/>
<path d="M20.1067 24.2268C20.1067 26.5068 18.2667 28.3335 16 28.3335C13.7334 28.3335 11.8934 26.4935 11.8934 24.2268H20.1067Z" stroke="#9B0F5E" stroke-width="1.5" stroke-linecap="round" stroke-linejoin="round"/>
</svg>
