<svg width="32" height="32" viewBox="0 0 32 32" fill="none" xmlns="http://www.w3.org/2000/svg">
<path d="M14.2267 26.6266C13.9067 26.6533 13.5867 26.6666 13.2667 26.6666C11.7067 26.6666 10.2267 26.2933 8.90666 25.6399L3.71999 26.3866L4.50667 21.1733H4.52C3.98667 19.9999 3.66667 18.7066 3.66667 17.3333C3.66667 14.8133 4.69333 12.5333 6.34666 10.8533" stroke="#9B0F5E" stroke-width="1.5" stroke-linecap="round" stroke-linejoin="round"/>
<path d="M14.4801 15.7067C15.0692 15.7067 15.5468 15.2411 15.5468 14.6667C15.5468 14.0923 15.0692 13.6267 14.4801 13.6267C13.891 13.6267 13.4134 14.0923 13.4134 14.6667C13.4134 15.2411 13.891 15.7067 14.4801 15.7067Z" fill="#9B0F5E"/>
<path d="M18.7466 15.7067C19.3357 15.7067 19.8133 15.2411 19.8133 14.6667C19.8133 14.0923 19.3357 13.6267 18.7466 13.6267C18.1575 13.6267 17.68 14.0923 17.68 14.6667C17.68 15.2411 18.1575 15.7067 18.7466 15.7067Z" fill="#9B0F5E"/>
<path d="M23.0001 15.7067C23.5892 15.7067 24.0667 15.2411 24.0667 14.6667C24.0667 14.0923 23.5892 13.6267 23.0001 13.6267C22.411 13.6267 21.9334 14.0923 21.9334 14.6667C21.9334 15.2411 22.411 15.7067 23.0001 15.7067Z" fill="#9B0F5E"/>
<path d="M27.4933 18.5066L28.28 23.7199L23.0933 22.9733C22.16 23.4399 21.1467 23.7599 20.0667 23.9066C19.64 23.9733 19.1867 23.9999 18.7333 23.9999C13.4267 23.9999 9.14665 19.8266 9.14665 14.6666C9.14665 12.0933 10.2 9.79992 11.9333 8.10659C13.6533 6.38659 16.0666 5.33325 18.7466 5.33325C24.0533 5.33325 28.3333 9.50659 28.3333 14.6666C28.3333 16.0399 28.0133 17.3333 27.48 18.5066H27.4933V18.5066Z" stroke="#9B0F5E" stroke-width="1.5" stroke-linecap="round" stroke-linejoin="round"/>
</svg>
