<svg width="32" height="32" viewBox="0 0 32 32" fill="none" xmlns="http://www.w3.org/2000/svg">
<path d="M28.3333 11.6267C28.3333 13.1734 27.7467 14.7334 26.56 15.92L24.5867 17.8934L16.0933 26.3867C16.0533 26.4267 16.04 26.4401 16 26.4667C15.96 26.4401 15.9467 26.4267 15.9067 26.3867L5.44001 15.92C4.25334 14.7334 3.66667 13.1867 3.66667 11.6267C3.66667 10.0667 4.25334 8.50672 5.44001 7.32005C7.81334 4.96005 11.6533 4.96005 14.0267 7.32005L15.9867 9.29338L17.96 7.32005C20.3333 4.96005 24.16 4.96005 26.5333 7.32005C27.7467 8.50672 28.3333 10.0534 28.3333 11.6267Z" stroke="#9B0F5E" stroke-width="1.5" stroke-linecap="round" stroke-linejoin="round"/>
</svg>
