<svg width="32" height="32" viewBox="0 0 32 32" fill="none" xmlns="http://www.w3.org/2000/svg">
<path d="M14.6267 25.5868C8.57333 25.5868 3.66666 20.6801 3.66666 14.6268C3.66666 8.57342 8.57333 3.66675 14.6267 3.66675C20.68 3.66675 25.5867 8.57342 25.5867 14.6268C25.5867 20.6801 20.68 25.5868 14.6267 25.5868Z" stroke="#9B0F5E" stroke-width="1.5" stroke-linecap="round" stroke-linejoin="round"/>
<path d="M28.3334 28.3335L22.8534 22.8535" stroke="#9B0F5E" stroke-width="1.5" stroke-linecap="round" stroke-linejoin="round"/>
<path d="M14.7739 12.876C16.3555 12.876 17.6377 11.5606 17.6377 9.93798C17.6377 8.31538 16.3555 7 14.7739 7C13.1923 7 11.9102 8.31538 11.9102 9.93798C11.9102 11.5606 13.1923 12.876 14.7739 12.876Z" stroke="#9B0F5E" stroke-width="1.5" stroke-linecap="round" stroke-linejoin="round"/>
<path d="M9 21V19.3228C9 17.3721 10.542 15.802 12.4319 15.802H17.5681C19.4696 15.802 21 17.384 21 19.3228V21" stroke="#9B0F5E" stroke-width="1.5" stroke-linecap="round" stroke-linejoin="round"/>
<line x1="8" y1="21.5" x2="22" y2="21.5" stroke="#9B0F5E"/>
</svg>
