<svg width="32" height="32" viewBox="0 0 32 32" fill="none" xmlns="http://www.w3.org/2000/svg">
<path d="M15.7335 16.6133C17.5523 16.6133 19.0268 15.1388 19.0268 13.3199C19.0268 11.5011 17.5523 10.0266 15.7335 10.0266C13.9146 10.0266 12.4401 11.5011 12.4401 13.3199C12.4401 15.1388 13.9146 16.6133 15.7335 16.6133Z" stroke="#9B0F5E" stroke-width="1.5" stroke-linecap="round" stroke-linejoin="round"/>
<path d="M9.09341 25.72V23.84C9.09341 21.6533 10.8667 19.8933 13.0401 19.8933H18.9467C21.1334 19.8933 22.8934 21.6666 22.8934 23.84V25.72" stroke="#9B0F5E" stroke-width="1.5" stroke-linecap="round" stroke-linejoin="round"/>
<path d="M16 28.3334C22.8115 28.3334 28.3333 22.8116 28.3333 16.0001C28.3333 9.18857 22.8115 3.66675 16 3.66675C9.18849 3.66675 3.66667 9.18857 3.66667 16.0001C3.66667 22.8116 9.18849 28.3334 16 28.3334Z" stroke="#9B0F5E" stroke-width="1.5" stroke-linecap="round" stroke-linejoin="round"/>
</svg>
